<svg xmlns="http://www.w3.org/2000/svg" viewBox="0 0 560 420"><defs><linearGradient id="a" x1="0" y1="0" x2="1" y2="1"><stop stop-color="#52d3ff"/><stop offset="1" stop-color="#9d7cff"/></linearGradient><filter id="b"><feGaussianBlur stdDeviation="18"/></filter></defs><rect width="560" height="420" rx="48" fill="#07101d"/><circle cx="410" cy="90" r="110" fill="#52d3ff" opacity=".18" filter="url(#b)"/><circle cx="150" cy="330" r="125" fill="#9d7cff" opacity=".16" filter="url(#b)"/><g fill="none" stroke="url(#a)" stroke-width="2"><path d="M70 294c70-96 125-12 195-110s131 37 225-77"/><path opacity=".35" d="M70 335c70-78 128-31 197-97s137 7 223-66"/></g><g fill="#0f2239" stroke="#52d3ff"><rect x="72" y="86" width="112" height="74" rx="16"/><rect x="225" y="166" width="112" height="74" rx="16"/><rect x="380" y="78" width="112" height="74" rx="16"/></g><g fill="#dff8ff" font-family="system-ui" font-size="15" font-weight="700"><text x="102" y="128">RELEASES</text><text x="253" y="208">ANALYTICS</text><text x="405" y="120">FORECASTS</text></g><circle cx="280" cy="310" r="46" fill="url(#a)"/><path d="M258 329v-38h12l10 15 10-15h12v38h-12v-19l-10 15-10-15v19z" fill="#07101d"/></svg>
